<svg xmlns="http://www.w3.org/2000/svg" width="1240" height="1240"><path d="M480.036 34.309c-8.468 4.156-12.587 13.893-10.022 23.691.648 2.475 1.616 7.2 2.151 10.5.535 3.3 1.481 7.575 2.102 9.5.622 1.925 1.422 5.975 1.779 9 .357 3.025 1.142 7.525 1.745 10 1.387 5.695 2.959 13.43 4.675 23 .74 4.125 1.837 9.072 2.439 10.993.602 1.922 1.093 5.072 1.09 7-.003 1.929.641 5.532 1.43 8.007.789 2.475 1.935 7.425 2.547 11 2.01 11.753 3.908 21.415 5.283 26.907 3.85 15.373 22.334 19.753 32.258 7.643 3.377-4.122 3.487-4.524 3.487-12.781 0-5.315-.565-9.876-1.5-12.115-.825-1.974-1.5-5.348-1.5-7.496 0-2.149-.652-5.753-1.448-8.01-.796-2.257-1.755-6.926-2.131-10.376-.376-3.45-1.086-7.051-1.578-8.003-.491-.952-1.319-4.777-1.839-8.5s-1.383-8.569-1.918-10.769c-1.465-6.031-5.034-24.34-7.114-36.5-.612-3.575-1.758-8.525-2.547-11-.789-2.475-1.433-6.005-1.43-7.845.007-4.965-3.752-16.271-6.427-19.328-2.842-3.248-10.431-6.849-14.263-6.768-1.543.032-4.814 1.045-7.269 2.25m194.306.648c-6.331 1.509-11.649 7.583-12.887 14.72-.364 2.103-1.291 5.751-2.059 8.108-.768 2.357-1.396 5.789-1.396 7.628 0 1.838-.675 4.958-1.5 6.933-.825 1.974-1.5 5.15-1.5 7.057s-.488 4.734-1.084 6.282c-.596 1.548-1.52 5.515-2.054 8.815-.533 3.3-1.621 7.928-2.416 10.285-.795 2.357-1.446 5.789-1.446 7.628 0 1.838-.675 4.958-1.5 6.933-.825 1.974-1.5 5.15-1.5 7.057s-.482 4.734-1.072 6.282c-1.009 2.649-2.346 8.831-4.936 22.815-.611 3.3-1.722 8.025-2.469 10.5-3.35 11.102-2.506 22.32 2.036 27.061 6.504 6.789 14.288 8.55 21.403 4.842 7.803-4.067 9.773-8.055 13.533-27.403.749-3.85 1.843-8.267 2.433-9.815.59-1.548 1.072-4.375 1.072-6.282s.675-5.083 1.5-7.057c.825-1.975 1.5-5.095 1.5-6.933 0-1.839.642-5.271 1.427-7.628s1.719-6.535 2.076-9.285 1.29-6.697 2.073-8.77c.783-2.074 1.424-5.351 1.424-7.282 0-1.932.675-5.128 1.5-7.102.825-1.975 1.5-5.095 1.5-6.933 0-1.839.635-5.271 1.411-7.628.777-2.357 1.728-6.76 2.116-9.785.387-3.025 1.111-6.276 1.609-7.224 1.592-3.028 2.848-16.539 1.973-21.222-1.099-5.885-6.209-11.107-12.224-12.494-4.971-1.146-6.117-1.157-10.543-.103m-360.393 66.687c-3.418.604-9.082 5.976-11.217 10.64-3.681 8.041-1.81 13.774 10.018 30.698 2.337 3.344 4.25 6.296 4.25 6.56 0 .263 1.575 2.719 3.5 5.458 1.925 2.739 3.5 5.257 3.5 5.596 0 .339 1.35 2.321 3 4.404 1.65 2.083 3 4.065 3 4.404 0 .339 1.575 2.857 3.5 5.596s3.5 5.236 3.5 5.55c0 .313 1.575 2.633 3.5 5.154s3.5 5.156 3.5 5.856c0 .701.337 1.423.75 1.607.867.385 5.25 6.482 5.25 7.303 0 .303 1.575 2.791 3.5 5.53 1.925 2.739 3.5 5.434 3.5 5.99 0 .555.464 1.01 1.031 1.01.568 0 1.327.787 1.688 1.75s2.147 3.883 3.969 6.49 3.312 5.017 3.312 5.356c0 .339 1.238 2.258 2.75 4.264 2.996 3.975 4.686 6.55 6.326 9.64 2.956 5.573 12.144 8.591 20.013 6.574 8.711-2.233 12.895-7.667 12.904-16.759.007-6.3-.676-8.749-3.758-13.477-.954-1.464-3.046-4.839-4.648-7.5-1.603-2.661-3.178-5.063-3.5-5.338-.965-.822-5.087-6.875-5.087-7.47 0-.303-1.575-2.791-3.5-5.53-1.925-2.739-3.5-5.397-3.5-5.906 0-.51-.337-1.077-.75-1.261-.809-.359-5.25-6.456-5.25-7.207 0-.404-9.842-15.568-11.764-18.126-1-1.331-4.457-6.576-5.724-8.685-5.036-8.384-6.924-11.388-7.425-11.815-.965-.822-5.087-6.875-5.087-7.47 0-.303-1.575-2.791-3.5-5.53-1.925-2.739-3.5-5.177-3.5-5.419 0-1.587-8.437-12.677-11.313-14.871-3.552-2.709-11.015-4.076-16.738-3.066m522.837 5.856c-3.111 2.113-8.271 8.546-12.286 15.314-.55.927-2.8 4.302-5 7.5-2.2 3.198-4.45 6.573-5 7.5-.55.927-2.8 4.302-5 7.5-2.2 3.198-4.455 6.573-5.012 7.5-1.839 3.063-4.933 7.678-5.488 8.186-.552.505-3.623 5.084-5.488 8.181-.557.925-5.062 7.665-10.012 14.978-4.95 7.314-9.323 14.095-9.718 15.069-.395.975-1.182 1.772-1.75 1.772-.567 0-1.032.422-1.032.938 0 .515-2.921 5.246-6.492 10.513-7.174 10.58-9.508 15.39-9.508 19.588 0 4.117 3.323 11.039 6.933 14.444 2.82 2.659 3.975 3.024 10.651 3.361 6.881.348 7.814.152 11.512-2.41 2.213-1.534 4.514-3.722 5.113-4.861.6-1.14 1.361-2.298 1.691-2.573.922-.768 5.1-6.853 5.1-7.428 0-.28 1.913-3.235 4.25-6.567 2.337-3.332 4.705-6.834 5.262-7.782 1.668-2.84 4.904-7.688 5.488-8.223.564-.516 3.704-5.206 5.488-8.197 2.087-3.498 20.963-31.323 21.575-31.803.35-.275.817-.963 1.037-1.528.22-.566 4.45-7.018 9.4-14.34 12.212-18.061 12.135-17.94 14.985-23.818 3.007-6.201 3.091-8.449.524-14.105-3.741-8.243-8.226-11.194-17.027-11.202-5.311-.006-7.199.456-10.196 2.493M176.279 237.053c-3.406 1.046-8.279 4.983-8.279 6.689 0 .557-.675 1.573-1.5 2.258-1.047.869-1.5 3.176-1.5 7.642 0 8.897 3.461 14.123 13.148 19.858 2.499 1.48 14.194 9.265 15.352 10.22.55.454 9.775 6.655 20.5 13.78 10.725 7.125 19.95 13.327 20.5 13.782.992.821 18.203 12.289 21.356 14.23 2.791 1.719 7.593 4.931 8.644 5.783 1.352 1.095 13.212 8.946 15.475 10.244.996.572 2.504 1.613 3.349 2.315.846.702 3.992 1.53 6.991 1.839 6.534.674 13.097-2.082 16.845-7.075 1.999-2.663 2.34-4.285 2.34-11.118 0-6.412-.397-8.548-2-10.763-1.606-2.219-18.527-14.601-26.306-19.249-2.447-1.462-7.527-4.838-8.694-5.777-.55-.443-3.25-2.268-6-4.055a387.251 387.251 0 01-10.24-6.953c-2.882-2.037-5.499-3.703-5.816-3.703-.318 0-2.196-1.238-4.174-2.75-1.978-1.512-5.737-4.1-8.354-5.75-2.617-1.65-11.374-7.5-19.462-13-26.435-17.978-27.494-18.576-33.766-19.047-2.854-.214-6.638.056-8.409.6m797.221 5.825c-1.65.898-5.16 3.092-7.8 4.877-2.64 1.785-5.228 3.245-5.75 3.245-.523 0-.95.395-.95.879 0 .483-1.35 1.438-3 2.121s-3 1.638-3 2.121c0 .484-.4.879-.889.879-.715 0-11.411 6.731-19.111 12.026-.825.567-5.325 3.48-10 6.474s-9.175 5.889-10 6.435c-.825.545-5.251 3.483-9.835 6.528-4.585 3.045-8.511 5.537-8.725 5.537-.215 0-4.705 2.925-9.977 6.5-5.273 3.575-9.77 6.5-9.994 6.5-1.202 0-13.417 9.034-16.568 12.254-7.743 7.91-5.882 21.886 3.702 27.81 2.31 1.427 4.955 1.936 10.067 1.936 6.868 0 7.027-.062 16.882-6.582 5.471-3.621 11.9-7.783 14.286-9.25 7.03-4.323 8.747-5.447 15.144-9.918 3.344-2.337 6.264-4.25 6.487-4.25.224 0 4.721-2.925 9.994-6.5 5.272-3.575 9.805-6.5 10.072-6.5.267 0 2.726-1.575 5.465-3.5s5.257-3.5 5.596-3.5c.339 0 2.256-1.28 4.26-2.845 2.004-1.565 5.669-4.059 8.144-5.543 7.666-4.596 8.32-5.021 12.866-8.362 2.432-1.788 4.826-3.25 5.32-3.25 1.017 0 1.651-.466 7.507-5.514 3.38-2.915 4.426-4.658 5.396-8.993 1.403-6.268-.016-13.469-3.394-17.223-5.28-5.869-15.695-7.93-22.195-4.392M504 262.972c-12.933 1.66-19.999 3.04-26.5 5.175-1.65.542-5.025 1.589-7.5 2.326-8.006 2.385-21.466 7.843-26 10.542-.825.492-4.2 2.305-7.5 4.03-12.174 6.363-22.034 13-35 23.561-20.338 16.564-37.917 36.372-51.678 58.229-2.986 4.744-11.464 21.027-14.664 28.165-1.11 2.475-3.399 7.539-5.088 11.253-1.688 3.714-3.085 7.089-3.104 7.5-.019.411-.903 2.547-1.966 4.747-1.063 2.2-1.962 4.675-1.998 5.5-.036.825-.726 2.374-1.534 3.441-.807 1.068-1.468 3.01-1.468 4.316s-.509 3.325-1.131 4.488c-1.312 2.452-3.36 10.887-5.398 22.234-.788 4.388-1.711 8.663-2.05 9.5-.34.837-.995 9.75-1.457 19.808-.996 21.705.135 52.423 2.014 54.686 1.916 2.309 71.656 2.285 76.125-.026 3.435-1.776 6.62-4.701 9.14-8.393 2.257-3.306 2.427-13.253.257-15.054-.825-.685-1.5-1.677-1.5-2.204 0-.971-6.512-9.453-8.672-11.296-.645-.55-2.782-4.018-4.75-7.707-3.105-5.821-3.575-7.605-3.559-13.5.03-10.609 4.551-16.549 17.854-23.452 7.956-4.129 17.093-6.129 25.398-5.56 4.375.3 8.444 1.034 9.042 1.632.598.598 1.785 1.101 2.637 1.118 2.281.046 10.115 4.113 13.442 6.978 5.368 4.623 7.685 7.473 9.651 11.868 4.381 9.798 1.258 20.567-9.065 31.253l-6.154 6.37.441 6.561c.462 6.871 1.817 9.833 7.21 15.766 5.651 6.215 5.383 6.173 39.853 6.173 27.422 0 31.594-.201 32.738-1.58 1.051-1.266 1.257-11.284 1.038-50.407-.196-35.029.048-49.428.863-50.952 2.196-4.103 8.961-8.061 13.779-8.061 5.235 0 8.7 1.743 16.501 8.301 3.161 2.657 8.765 6.377 12.453 8.265 5.585 2.861 7.778 3.434 13.134 3.434 11.586 0 17.606-5.516 25.65-23.5 1.148-2.567 1.968-7.494 2.287-13.753.423-8.315.165-10.749-1.754-16.5-1.238-3.711-2.873-7.457-3.634-8.326-.761-.868-1.383-2.031-1.383-2.585 0-1.753-8.833-10.047-13.029-12.234-2.879-1.501-5.874-2.102-10.471-2.102-8.251 0-12.907 2.326-21.5 10.741l-6.5 6.365-6.5-.327c-5.517-.277-7.331-.879-12-3.987-9.64-6.415-9-1.752-9-65.615 0-30.807-.273-56.725-.607-57.595-.704-1.835.073-1.853-17.393.39m224.197 67.308c-9.517 19.371-17.733 35.895-18.257 36.72-.524.825-1.207 2.175-1.519 3-.311.825-.984 2.175-1.496 3-.511.825-1.395 2.625-1.963 4-.568 1.375-3.042 6.465-5.497 11.31-2.456 4.846-4.465 9.635-4.465 10.641 0 4.857 6.331 14.855 11.386 17.978 4.192 2.591 7.181 2.607 13.614.071 3.672-1.447 7.432-2 13.609-2 7.407 0 9.127.347 13.011 2.623 4.746 2.782 11.38 10.547 11.38 13.321 0 .911.53 2.186 1.178 2.834.648.648 1.38 5.024 1.627 9.725.465 8.857-1.124 15.86-5.558 24.497-4.199 8.178-14.167 17.655-23.669 22.5-5.998 3.059-15.86 2.748-21.078-.666-7.689-5.029-10.296-8.685-18.566-26.037-1.233-2.586-3.753-6.167-5.6-7.958-3.151-3.054-3.786-3.251-10.273-3.192-5.064.046-7.361.511-8.585 1.734-1.451 1.451-13.455 24.566-16.42 31.619-.578 1.375-1.502 3.287-2.054 4.25l-2.008 3.5c-.554.962-1.261 2.425-1.573 3.25-.311.825-.984 2.175-1.496 3-.511.825-1.402 2.625-1.979 4-1.158 2.759-4.556 9.655-5.912 12-.477.825-3.483 6.9-6.679 13.5s-6.159 12.15-6.583 12.333c-.425.184-.772 1.168-.772 2.189 0 1.42 5.029 4.331 21.477 12.432 11.812 5.818 22.499 11.02 23.75 11.56 1.25.539 2.948 1.4 3.773 1.911.825.512 2.175 1.197 3 1.523 4.862 1.919 9.613 5.503 11.338 8.552 2.587 4.575 3.836 12.208 3.062 18.71-.737 6.186-5.314 11.702-10.613 12.79-6.254 1.284-12.308 4.802-17.405 10.113-4.339 4.521-5.219 6.097-5.784 10.36-1.981 14.93 5.398 28.32 20.674 37.518 10.062 6.058 24.581 8.085 36.213 5.055 9.511-2.477 13.822-7.093 15.905-17.032 1.493-7.119.847-15.086-2.001-24.702-1.789-6.038-1.755-9.693.134-14.213 1.849-4.425 4.271-6.949 9.208-9.595 6.423-3.442 9.397-2.753 28.345 6.566 9.583 4.714 18.099 8.967 18.924 9.451 2.249 1.32 9.163 4.734 12 5.925 1.375.577 3.4 1.571 4.5 2.209 11.291 6.55 12.108 6.358 17.738-4.155.442-.825 1.876-3.3 3.186-5.5 2.626-4.408 12.957-24.972 15.323-30.5a176.54 176.54 0 012.875-6.331c.758-1.557 1.378-3.289 1.378-3.849s.628-2.436 1.396-4.169c.767-1.733 2.375-6.526 3.571-10.651 7.839-27.015 8.535-32.485 8.523-67-.011-29.261-1.034-41.717-4.683-57-.591-2.475-1.422-6.837-1.847-9.694-.425-2.856-1.088-5.705-1.475-6.33-.387-.626-1.304-3.464-2.039-6.307-2.163-8.365-4.174-14.803-6.456-20.669-1.177-3.025-2.516-6.708-2.976-8.185-2.483-7.968-19.466-39.089-24.729-45.315-.465-.55-3.49-4.375-6.723-8.5-3.232-4.125-9.294-10.824-13.47-14.887-7.597-7.391-23.193-20.113-24.657-20.113-.428 0-1.488-.629-2.356-1.398-2.252-1.995-12.89-7.608-14.352-7.572-.675.016-9.014 15.879-18.53 35.25M1037 411.5c-1.925.741-5.26 1.382-7.412 1.424-2.152.042-6.202.724-9 1.517-5.025 1.423-11.385 2.713-23.088 4.686-3.3.556-7.575 1.499-9.5 2.097-1.924.597-6.199 1.43-9.5 1.851-3.3.42-7.8 1.225-10 1.788-4.069 1.041-10.226 2.27-21 4.195-3.3.589-8.29 1.717-11.088 2.507-2.798.789-6.553 1.435-8.345 1.435-5.829 0-16.902 3.988-20.184 7.27-3.922 3.923-4.883 6.565-4.883 13.427 0 6.518 2.146 10.651 7.748 14.925 3.393 2.587 4.388 2.822 11.398 2.688 4.225-.081 8.551-.613 9.614-1.181 1.063-.569 5.264-1.492 9.336-2.051 4.072-.559 9.204-1.455 11.404-1.99 4.446-1.082 11.245-2.469 22.5-4.588 11.476-2.161 18.062-3.508 23-4.703 2.475-.599 7.2-1.429 10.5-1.845 3.3-.415 7.35-1.214 9-1.774 1.65-.56 5.44-1.305 8.423-1.656 2.983-.35 6.189-1.047 7.125-1.548.936-.501 4.796-1.346 8.577-1.878 14.895-2.095 19.724-4.201 23.974-10.456 1.895-2.789 2.401-4.837 2.401-9.719 0-7.085-1.97-11.135-7.449-15.314-3.075-2.346-4.25-2.599-11.734-2.531-4.574.042-9.892.683-11.817 1.424M423.5 580.224c-10.392 3.519-14.324 5.787-18.946 10.928-5.011 5.572-6.037 8.981-5.308 17.632.604 7.158 6.808 20.092 12.491 26.037.695.727 1.263 2.163 1.263 3.191 0 1.029.45 2.148 1 2.488 1.745 1.078 1.088 8.572-1.092 12.45-1.151 2.048-3.963 4.941-6.25 6.43-4.132 2.691-4.24 2.704-17.158 2.088-7.15-.341-15.475-1.063-18.5-1.603-3.025-.54-11.237-1.383-18.248-1.873-7.012-.49-15.494-1.431-18.849-2.091-5.088-1.001-6.254-.968-7.03.199-1.003 1.511-.223 9.377 1.191 12.02.477.892 1.286 4.042 1.798 7 .511 2.959 1.388 6.73 1.948 8.38.56 1.65 1.705 5.475 2.545 8.5 3.7 13.325 5.957 20.729 7.253 23.784.765 1.806 1.408 4.281 1.427 5.5.02 1.219.679 3.341 1.465 4.716s1.445 3.332 1.465 4.349c.019 1.017.662 3.267 1.427 5 1.904 4.309 4.583 12.419 5.5 16.651.417 1.925 1.287 4.483 1.933 5.684.646 1.202 1.175 2.934 1.175 3.849 0 .916.628 3.083 1.396 4.816.767 1.733 2.375 6.526 3.572 10.651 1.198 4.125 2.625 8.85 3.171 10.5 1.631 4.925 3.88 12.734 4.896 17 1.028 4.315 3.259 12.223 5.539 19.634.784 2.549 1.426 5.755 1.426 7.124 0 1.37.612 4.235 1.36 6.366.748 2.132 1.689 6.576 2.091 9.876.402 3.3 1.365 8.457 2.14 11.46.775 3.003 1.418 7.503 1.429 10 .01 2.497.67 8.14 1.465 12.54.795 4.4 1.456 11.375 1.47 15.5.013 4.125.692 14.25 1.509 22.5s1.869 21.75 2.338 30c.469 8.25 1.397 16.013 2.061 17.25 1.035 1.93 2.021 2.25 6.922 2.251 3.143.001 9.54.676 14.215 1.499 4.675.823 11.425 1.5 15 1.504 3.575.004 9.2.481 12.5 1.059 3.3.579 12.75 1.675 21 2.436 30.657 2.828 38.191 3.583 46 4.61 4.4.579 13.4 1.43 20 1.89 6.6.46 15.15 1.322 19 1.916 3.85.594 11.95 1.508 18 2.032 20.838 1.804 34.027 3.153 44 4.501 7.532 1.019 10.269 1.068 11.09.202 1.398-1.475 4.108-9.061 4.969-13.911.367-2.069 1.041-3.992 1.497-4.273.455-.282 1.14-2.593 1.522-5.136.381-2.543 1.304-5.795 2.051-7.227.747-1.432 1.359-3.503 1.36-4.603.001-1.1.642-4.025 1.426-6.5.784-2.475 2.381-7.875 3.55-12 1.168-4.125 2.782-9.525 3.585-12 .803-2.475 1.458-5.426 1.455-6.559-.003-1.132.656-2.932 1.463-4 .808-1.067 1.485-3.066 1.506-4.441.021-1.375.668-3.707 1.438-5.183.77-1.475 1.709-4.093 2.088-5.817.379-1.724 1.318-4.342 2.088-5.817.77-1.476 1.402-3.384 1.406-4.242.003-.857.667-2.432 1.474-3.5.808-1.067 1.483-2.853 1.5-3.968.018-1.116.646-2.916 1.397-4 .751-1.085 1.711-3.098 2.134-4.473 1.652-5.373 18.185-39.425 25.006-51.5 1.864-3.3 4.783-8.7 6.488-12 1.704-3.3 3.518-6.675 4.03-7.5.512-.825 3.215-5.55 6.006-10.5 2.791-4.95 5.503-9.675 6.025-10.5.523-.825 1.35-2.4 1.838-3.5s2.879-5.375 5.312-9.5c2.434-4.125 4.745-8.175 5.135-9 .39-.825 2.463-4.65 4.605-8.5 2.143-3.85 5.986-11.05 8.54-16 2.555-4.95 5.018-9.675 5.474-10.5 2.929-5.303 8.042-16.415 8.042-17.48 0-.701.675-1.835 1.5-2.52s1.5-2.306 1.5-3.603c0-2.679-1.252-3.124-10.5-3.731-9.022-.591-28.968-2.589-38-3.805-4.4-.592-12.091-1.304-17.09-1.581l-9.091-.505-5.659 5.526c-5.559 5.427-5.66 5.627-5.66 11.17 0 5.696 1.926 10.407 7.365 18.015 7.995 11.182 10.581 23.144 6.717 31.076C671.976 762.938 661.86 771 656.965 771c-.861 0-2.127.563-2.814 1.25-1.714 1.715-26.897 1.732-30.246.021a92.767 92.767 0 00-4.905-2.293c-4.884-2.078-7.28-3.835-12.043-8.828-9.028-9.465-11.116-18.687-6.371-28.135 2.648-5.272 9.9-13.404 14.476-16.231 1.505-.931 3.056-3.235 3.762-5.589 2.174-7.259-2.533-18.882-10.242-25.291-2.192-1.822-19.687-4.91-27.718-4.892-2.95.006-10.314-.65-16.364-1.458-10.752-1.437-20.722-2.46-45-4.617-6.6-.587-16.295-1.713-21.544-2.502-5.249-.789-12.924-1.435-17.055-1.435-6.221 0-8.037-.387-10.561-2.25-3.539-2.611-8.34-8.093-8.34-9.522 0-.541-.618-1.496-1.373-2.123-1.72-1.427-2.92-10.026-2.048-14.674.452-2.412 1.497-3.936 3.359-4.899 4.712-2.436 12.102-10.56 14.625-16.077 3.259-7.124 3.235-13.93-.073-20.767-1.381-2.853-3.069-5.873-3.75-6.711-1.787-2.194-10.297-8.977-11.264-8.977-.45 0-1.529-.615-2.397-1.366-.869-.752-4.692-2.327-8.497-3.5-8.813-2.718-18.888-2.685-27.082.09m-27.089 429.215c-7.276 4.77-10.411 10.511-10.411 19.061 0 9.79 4.046 15.97 13.986 21.364 1.383.751 7.239 1.732 13.014 2.181 5.775.449 13.2 1.295 16.5 1.88 3.3.585 8.7 1.062 12 1.059 3.3-.002 10.725.662 16.5 1.476 10.104 1.423 18.625 2.301 44.5 4.583 6.6.582 16.295 1.71 21.544 2.507 5.249.798 12.674 1.47 16.5 1.494 3.826.024 8.981.468 11.456.988 2.475.52 10.35 1.377 17.5 1.905 7.15.527 16.257 1.523 20.239 2.213 6.483 1.122 7.787 1.061 12.5-.59 5.875-2.059 8.689-4.232 12.897-9.96 2.602-3.544 2.864-4.65 2.864-12.1 0-7.519-.248-8.543-2.992-12.331-4.612-6.365-9.721-9.238-18.217-10.242-4.01-.474-9.991-1.324-13.291-1.888-3.3-.565-8.925-1.031-12.5-1.035-3.575-.004-10.325-.681-15-1.504-4.675-.823-11.425-1.5-15-1.504-3.575-.004-9.2-.481-12.5-1.059-3.3-.579-12.75-1.675-21-2.436-31.421-2.898-38.306-3.615-48.5-5.046-5.775-.811-13.425-1.486-17-1.5-3.575-.014-10.1-.675-14.5-1.47-4.4-.795-12.05-1.432-17-1.415-8.494.03-9.286.219-14.089 3.369M393 1085.802c0 2.658 1.17 5.8 4.171 11.198.459.825 1.247 2.447 1.752 3.605 1.411 3.237 7.251 12.773 8.511 13.895.616.55 3.291 3.785 5.943 7.189 10.832 13.903 32.36 28.351 51.123 34.311 3.85 1.223 9.237 2.929 11.972 3.792 7.218 2.277 42.922 2.28 50.028.004 2.75-.881 8.375-2.641 12.5-3.912 4.125-1.27 8.21-2.889 9.079-3.597.868-.708 2.01-1.287 2.538-1.287 1.432 0 7.314-3.137 12.709-6.778 2.626-1.772 5.152-3.222 5.614-3.222 2.756 0 29.06-27.865 29.06-30.785 0-.55.675-1.26 1.5-1.577 2.282-.875 1.79-3.541-.75-4.06-6.859-1.404-16.46-2.544-25.75-3.059-5.775-.321-12.3-.999-14.5-1.507-2.2-.509-8.95-1.214-15-1.568-6.05-.353-14.771-1.273-19.381-2.043-4.61-.771-11.36-1.417-15-1.436-3.64-.019-10.219-.685-14.619-1.48-4.4-.795-10.925-1.492-14.5-1.55-3.575-.057-9.2-.494-12.5-.971-3.3-.477-11.4-1.343-18-1.925-6.6-.582-15.15-1.538-19-2.125-3.85-.588-12.85-1.471-20-1.964-7.15-.494-14.012-1.186-15.25-1.54-1.98-.566-2.25-.28-2.25 2.392" fill="undefined" fill-rule="evenodd"/></svg>